<?xml version="1.0" encoding="UTF-8" standalone="no"?>
<svg
   xmlns:svg="http://www.w3.org/2000/svg"
   xmlns="http://www.w3.org/2000/svg"
   version="1.0"
   width="1258.4496pt"
   height="647.78925pt"
   viewBox="0 0 1258.4496 647.78925"
   preserveAspectRatio="xMidYMid meet">
  <g
     transform="matrix(0.1,0,0,-0.1,-14.189889,650.83623)"
     style="fill:#FFFFFF;stroke:none">
    <path
       d="M 7605,6499 C 7032,6446 6450,6210 5990,5844 5869,5748 5588,5463 5499,5345 5194,4944 4995,4492 4920,4035 l -11,-71 -130,-2 c -428,-6 -832,-152 -1184,-427 -44,-34 -89,-72 -99,-84 l -19,-21 -51,43 c -267,224 -576,337 -925,337 -479,0 -919,-233 -1176,-622 -21,-32 -41,-58 -44,-58 -4,0 -25,18 -46,40 -203,208 -560,243 -808,81 -299,-195 -292.85666,-559.1421 -281,-927 18.38447,-563.6835 -3.91456,-755.2976 -3.91456,-2283.638823 2689.30926,0 8007.40246,-18.093214 12608.95156,-18.093214 0,1164.798137 -8.238,1917.313137 -8.238,2802.732037 -201,775 -973.799,1323 -1739.799,1326 l -141,1 -17,76 c -44,202 -173,531 -288,737 -401,717 -1086,1244 -1882,1448 -169,44 -277,63 -455,82 -145,16 -466,18 -615,4 z"
 />
  </g>
</svg>
