<?xml version="1.0" encoding="UTF-8" standalone="no" ?>
<svg xmlns="http://www.w3.org/2000/svg" viewBox="0 0 1573 810">
   <path fill="white" d="M 933.09,1.38 C 861.47,8.00 788.72,37.51 731.22,83.28 716.10,95.28 680.97,130.92 669.85,145.67 631.73,195.81 606.85,252.33 597.48,309.48 597.48,309.48 596.10,318.35 596.10,318.35 596.10,318.35 579.85,318.60 579.85,318.60 526.35,319.35 475.86,337.61 431.86,372.00 426.36,376.25 420.73,381.00 419.48,382.50 419.48,382.50 417.11,385.13 417.11,385.13 417.11,385.13 410.73,379.75 410.73,379.75 377.36,351.74 338.74,337.61 295.11,337.61 235.24,337.61 180.24,366.74 148.12,415.39 145.49,419.39 142.99,422.64 142.62,422.64 142.12,422.64 139.49,420.39 136.87,417.64 111.50,391.63 66.87,387.25 35.87,407.51 -1.50,431.89 -0.73,477.42 0.75,523.42 3.05,593.90 0.26,619.16 0.26,810.26 336.32,811.22 1001.15,811.23 1576.32,811.23 1576.32,665.58 1575.29,571.49 1575.29,460.77 1550.16,363.87 1453.57,295.35 1357.82,294.97 1357.82,294.97 1340.20,294.85 1340.20,294.85 1340.20,294.85 1338.07,285.34 1338.07,285.34 1332.57,260.08 1316.45,218.95 1302.07,193.19 1251.95,103.53 1166.33,37.64 1066.83,12.13 1045.71,6.63 1032.21,4.25 1009.96,1.88 991.84,-0.13 951.71,-0.38 933.09,1.38 Z" />
</svg>